# xmcd CD database file
#
# Track frame offsets:
#	150
#	20151
#	39270
#	64627
#
# Disc length: 1126 seconds
#
# Revision: 1
# Processed by: cddbd v1.5.1PL0 Copyright (c) Steve Scherf et al.
# Submitted via: CDex 1.51
#
DISCID=2b046404
DTITLE=KinKi Kids - ビロードの闇
DYEAR=2005
DGENRE=Pop
TTITLE0=ビロードの闇
TTITLE1=春雷
TTITLE2=10years
TTITLE3=ビロードの闇(Backing Track)
EXTD=YEAR: 2005
EXTT0=
EXTT1=
EXTT2=
EXTT3=
PLAYORDER=
